<?xml version="1.0" encoding="UTF-8"?>
<svg version="1.1" xmlns="http://www.w3.org/2000/svg" width="500" height="500">
<path d="M0 0 C165 0 330 0 500 0 C500 165 500 330 500 500 C335 500 170 500 0 500 C0 335 0 170 0 0 Z " fill="#FEF7EE" transform="translate(0,0)"/>
<path d="M0 0 C1.23516357 0.00563965 2.47032715 0.0112793 3.74291992 0.01708984 C22.35016807 0.26389949 42.20967699 3.93439693 56.26953125 17.15234375 C62.08487243 23.33496964 65.43573524 29.57269841 65.9375 38.125 C65.58441301 47.06607379 61.62096388 54.50460885 55.25 60.6875 C47.78449567 66.74061162 38.69672262 70.47245635 29.3125 72.3125 C29.92996094 72.64121094 30.54742187 72.96992188 31.18359375 73.30859375 C46.66284838 82.00242169 53.3155799 94.30057132 58.3125 110.8125 C58.51319092 111.56587646 58.71388184 112.31925293 58.9206543 113.09545898 C60.57372327 118.72494794 63.23271966 122.25204597 68.3125 125.3125 C73.59365056 126.14636588 76.75482997 124.94582046 81.3125 122.3125 C82.64583333 121.64583333 83.97916667 120.97916667 85.3125 120.3125 C85.9725 121.6325 86.6325 122.9525 87.3125 124.3125 C79.01366979 134.96219337 66.73991448 144.77800929 52.97802734 146.62597656 C44.07742161 147.32731117 34.90440131 147.56485621 27.3125 142.3125 C26.53648437 141.80332031 25.76046875 141.29414063 24.9609375 140.76953125 C18.81072282 136.39226119 13.62658039 130.99584756 12.3125 123.3125 C12.21666864 120.75887607 12.17082434 118.24006661 12.1875 115.6875 C12.18943359 114.97110352 12.19136719 114.25470703 12.19335938 113.51660156 C12.23097493 108.88361926 12.5484517 104.35739038 13.078125 99.75390625 C13.35860067 96.83228471 13.49119179 93.93433277 13.5625 91 C13.58828125 90.03449219 13.6140625 89.06898438 13.640625 88.07421875 C13.24680878 84.75959889 12.32970026 82.95778307 10.3125 80.3125 C5.85254717 77.55896391 0.44507072 76.84714278 -4.6875 76.3125 C-4.6875 74.6625 -4.6875 73.0125 -4.6875 71.3125 C-3.98625 71.21453125 -3.285 71.1165625 -2.5625 71.015625 C4.49579439 69.90317643 11.19405537 68.6321346 16.25 63.25 C19.18321166 57.90120228 19.01619896 52.23471893 18.3125 46.3125 C14.21773483 33.59121373 4.81245647 23.86096414 -6.81640625 17.68359375 C-14.83183345 13.85581831 -21.72069108 12.35587031 -30.6875 13.3125 C-34.8992209 14.83743343 -36.20736208 15.59229311 -38.6875 19.3125 C-39.09654541 22.5104914 -38.71129784 25.26148058 -37.6875 28.3125 C-33.62510825 33.5355751 -27.63781609 36.64317315 -22.01171875 39.92578125 C-15.17276935 44.00616283 -10.40217505 49.42938717 -8.13373661 57.21248245 C-7.39472779 60.69030442 -7.55804915 64.21312849 -7.57397461 67.75292969 C-7.57382858 68.60207443 -7.57368256 69.45121918 -7.5735321 70.32609558 C-7.57422799 73.1288815 -7.58200524 75.93160071 -7.58984375 78.734375 C-7.59170908 80.67921919 -7.59313244 82.62406386 -7.59413147 84.56890869 C-7.59794758 89.68497009 -7.60777016 94.80100305 -7.61883545 99.91705322 C-7.63086863 106.05695508 -7.63545612 112.19686645 -7.64128876 118.33677673 C-7.65098238 127.66203759 -7.67014529 136.98723607 -7.6875 146.3125 C-23.1975 146.3125 -38.7075 146.3125 -54.6875 146.3125 C-54.75537162 132.14299401 -54.81037162 117.97359661 -54.84293652 103.80396461 C-54.85856878 97.22390308 -54.87976275 90.64395887 -54.91381836 84.06396484 C-54.9464984 77.70972928 -54.96437136 71.35560633 -54.97213173 65.00129318 C-54.97765969 62.58129479 -54.98845438 60.16130232 -55.00469017 57.74135208 C-55.02657893 54.34257099 -55.02946209 50.94425079 -55.02807617 47.54541016 C-55.038862 46.55278168 -55.04964783 45.5601532 -55.0607605 44.53744507 C-55.01003458 32.983828 -51.49582779 22.78924647 -43.71875 14.1171875 C-31.09977677 2.0925862 -16.78781897 -0.08020936 0 0 Z " fill="#051EC2" transform="translate(286.6875,259.6875)"/>
<path d="M0 0 C15.18 0 30.36 0 46 0 C46.04898438 5.88972656 46.09796875 11.77945313 46.1484375 17.84765625 C46.18387615 21.60743773 46.21986591 25.36719815 46.2578125 29.12695312 C46.31782231 35.07784807 46.3759321 41.02871398 46.421875 46.97973633 C46.45909692 51.78444484 46.50554991 56.58898795 46.55806351 61.39355278 C46.57641357 63.21486916 46.59159072 65.03622073 46.60334396 66.85759163 C46.72097312 96.88419916 46.72097312 96.88419916 59.81640625 123.10546875 C68.86703744 131.68071325 79.82156472 133.26627427 91.85546875 133.15625 C95.65878194 132.96726549 98.50772503 132.50802783 102 131 C102.90070354 128.29788939 103.22157525 126.42931069 103.3125 123.625 C103.34988281 122.87476563 103.38726562 122.12453125 103.42578125 121.3515625 C102.71185495 117.40859337 100.53044438 115.07298761 97.28393555 112.796875 C95.27276625 111.55437517 93.23608546 110.36719536 91.1875 109.1875 C82.06830316 103.69366254 76.03048265 98.58688738 73 88 C72.61742572 84.99438948 72.61831562 82.04024923 72.65942383 79.01367188 C72.65876671 77.72444824 72.65876671 77.72444824 72.65809631 76.40917969 C72.66017031 73.59546423 72.68343511 70.78236013 72.70703125 67.96875 C72.71263216 66.00720546 72.71689992 64.0456567 72.71989441 62.08410645 C72.73130422 56.94169361 72.76073797 51.79953824 72.79400635 46.65722656 C72.83021097 40.47639282 72.84388679 34.2954726 72.86136627 28.11456299 C72.89037772 18.74286337 72.94789196 9.37172779 73 0 C88.18 0 103.36 0 119 0 C119.09063755 13.97003486 119.16390994 27.93987202 119.20724869 41.91013527 C119.2280569 48.39820979 119.25625062 54.88607141 119.30175781 61.37402344 C119.34545712 67.64399665 119.3691879 73.91376601 119.37950897 80.18387985 C119.38685725 82.56709371 119.40120585 84.95029736 119.42292023 87.33342361 C119.70792758 119.93113104 119.70792758 119.93113104 109 131 C108.06220703 132.01320312 108.06220703 132.01320312 107.10546875 133.046875 C95.01048118 144.98478481 80.17932489 146.30465155 64.03027344 146.31469727 C45.04837008 146.0916137 27.68082812 139.50765308 14 126 C6.32915591 117.3834354 -0.13542532 105.63175152 -0.12025452 93.79852295 C-0.12162918 92.96843719 -0.12300385 92.13835144 -0.12442017 91.28311157 C-0.11902725 89.93012466 -0.11902725 89.93012466 -0.11352539 88.54980469 C-0.11367142 87.59337067 -0.11381744 86.63693665 -0.1139679 85.65151978 C-0.11327148 82.49161508 -0.10549174 79.3317694 -0.09765625 76.171875 C-0.09579111 73.98040804 -0.09436766 71.78894067 -0.09336853 69.59747314 C-0.08955094 63.83039193 -0.07972709 58.06333591 -0.06866455 52.29626465 C-0.05663536 45.37626669 -0.05204458 38.45626031 -0.04621124 31.53625488 C-0.03651496 21.0241524 -0.01735307 10.5121052 0 0 Z " fill="#031DC2" transform="translate(222,103)"/>
<path d="M0 0 C23.83623693 0 23.83623693 0 35 4 C35.77472656 4.27714844 36.54945313 4.55429688 37.34765625 4.83984375 C50.65178959 10.57940028 59.95212532 24.18330318 66.5625 36.4375 C67.79134244 38.67465729 69.02051852 40.91163134 70.25 43.1484375 C70.87132812 44.28635742 71.49265625 45.42427734 72.1328125 46.59667969 C74.49637835 50.90474819 76.90562202 55.18613383 79.31835938 59.46679688 C84.6420806 68.91595492 89.88956057 78.40496708 95.0625 87.9375 C95.58658447 88.90179932 96.11066895 89.86609863 96.65063477 90.85961914 C99.88785463 96.84871149 102.99425128 102.89148942 106 109 C104.9161087 84.14440167 97.3307106 62.8596903 81.17578125 43.69140625 C69.71231818 29.51128766 68 18.67623478 68 0 C83.18 0 98.36 0 114 0 C114 47.85 114 95.7 114 145 C112.35 145 110.7 145 109 145 C108.93683594 144.3709375 108.87367188 143.741875 108.80859375 143.09375 C107.97405182 137.26074116 106.57558562 133.0788184 102.4296875 128.8125 C95.36014519 123.53875783 86.27868792 121.28783412 77.875 119.0625 C63.41079412 115.06280424 52.07687249 107.40120329 44.3828125 94.29296875 C43.27994397 92.2669376 42.19445233 90.23136715 41.125 88.1875 C39.91887696 85.96044539 38.71183155 83.7338901 37.50390625 81.5078125 C36.91367676 80.40727539 36.32344727 79.30673828 35.71533203 78.17285156 C33.23912055 73.59260043 30.65916479 69.07522729 28.0625 64.5625 C27.59183105 63.74072266 27.12116211 62.91894531 26.63623047 62.07226562 C20.11922727 50.69855894 13.55819215 39.34999057 7 28 C6.07961787 55.5128515 16.03756668 83.73765511 34.625 104 C45.74697852 116.39451611 46 128.17439702 46 145 C30.82 145 15.64 145 0 145 C0 97.15 0 49.3 0 0 Z " fill="#041EC2" transform="translate(105,103)"/>
<path d="M0 0 C6.32380706 3.41450739 12.79850057 3.21706888 19.8359375 2.53125 C25.50843634 0.52205957 29.14927857 -3.09543214 31.8359375 -8.46875 C32.68452981 -11.44370007 33.32092886 -14.41935672 33.8359375 -17.46875 C35.4859375 -17.46875 37.1359375 -17.46875 38.8359375 -17.46875 C39.77325449 -3.57562921 36.50066858 7.56206917 27.8359375 18.53125 C25.3359375 21.28125 25.3359375 21.28125 22.8359375 23.53125 C21.505625 24.76875 21.505625 24.76875 20.1484375 26.03125 C16.15868527 29.30780818 11.51624642 31.41732283 6.8359375 33.53125 C6.05347656 33.88832031 5.27101563 34.24539063 4.46484375 34.61328125 C-8.33043513 39.08117209 -23.41113853 37.08855604 -36.1015625 33.40625 C-38.95372914 32.43967629 -38.95372914 32.43967629 -41.1640625 32.53125 C-36.44814235 40.2164532 -30.9703499 44.09350264 -22.29296875 46.2421875 C-21.26042969 46.48195313 -20.22789062 46.72171875 -19.1640625 46.96875 C-7.90706819 49.70198767 -7.90706819 49.70198767 -4.50175476 55.22952271 C-3.00122815 58.93316205 -2.80158982 61.56122296 -2.82348633 65.54638672 C-2.82282921 66.55719551 -2.82282921 66.55719551 -2.82215881 67.58842468 C-2.82423413 69.79623285 -2.84750399 72.00326346 -2.87109375 74.2109375 C-2.87669422 75.74935491 -2.88096219 77.2877777 -2.88395691 78.82620239 C-2.89537031 82.86062587 -2.92480682 86.8947215 -2.95806885 90.92901611 C-2.99426394 95.77736639 -3.00794762 100.62582675 -3.02542877 105.47427368 C-3.05444674 112.82682662 -3.11195754 120.17866125 -3.1640625 127.53125 C-18.6740625 127.53125 -34.1840625 127.53125 -50.1640625 127.53125 C-50.4940625 94.53125 -50.8240625 61.53125 -51.1640625 27.53125 C-64.70944902 21.03606243 -64.70944902 21.03606243 -74.1640625 21.53125 C-76.33882651 23.07463091 -76.98238887 24.16790273 -78.1640625 26.53125 C-78.4140625 30.03125 -78.4140625 30.03125 -78.1640625 33.53125 C-77.5040625 34.19125 -76.8440625 34.85125 -76.1640625 35.53125 C-76.1640625 36.52125 -76.1640625 37.51125 -76.1640625 38.53125 C-77.4840625 39.19125 -78.8040625 39.85125 -80.1640625 40.53125 C-87.09222146 34.05712088 -92.64742134 28.25605466 -93.40234375 18.4296875 C-93.63252897 7.50194725 -92.01012574 0.56367554 -84.9140625 -7.84375 C-61.92598717 -31.76934879 -23.7398505 -13.24051918 0 0 Z " fill="#051FC2" transform="translate(197.1640625,278.46875)"/>
<path d="M0 0 C12.54 0 25.08 0 38 0 C38 38.94 38 77.88 38 118 C25.46 118 12.92 118 0 118 C0 79.06 0 40.12 0 0 Z " fill="#051FC2" transform="translate(355,257)"/>
<path d="M0 0 C4.62857793 2.78063345 8.13427664 6.17870952 10.57421875 11.05859375 C11.17033239 17.3292507 10.83080006 22.52240552 7.57421875 28.05859375 C2.46493623 33.16787627 -2.12501754 35.07831319 -9.23828125 35.49609375 C-14.90191707 35.35941476 -19.01442703 33.57150515 -23.42578125 30.05859375 C-27.92022325 24.79680799 -28.0430049 19.90339455 -27.80859375 13.08984375 C-27.30257641 9.08301253 -26.24379903 6.95076989 -23.42578125 4.05859375 C-16.58001146 -1.11066099 -8.30732766 -3.22393876 0 0 Z " fill="#0620C1" transform="translate(389.42578125,213.94140625)"/>
<path d="M0 0 C0.90105469 0.00902344 1.80210937 0.01804688 2.73046875 0.02734375 C3.41753906 0.03894531 4.10460937 0.05054688 4.8125 0.0625 C3.2310624 1.11679173 1.64869465 2.16975785 0.05859375 3.2109375 C-0.53824219 3.61570313 -1.13507813 4.02046875 -1.75 4.4375 C-2.34941406 4.83710938 -2.94882812 5.23671875 -3.56640625 5.6484375 C-6.45767251 8.17045771 -7.11509698 10.3262459 -7.48828125 14.12109375 C-7.49214844 15.23613281 -7.49601562 16.35117188 -7.5 17.5 C-7.51675781 18.61246094 -7.53351563 19.72492188 -7.55078125 20.87109375 C-7.15291205 24.36635328 -6.11839288 26.17380274 -4.1875 29.0625 C-4.1875 29.7225 -4.1875 30.3825 -4.1875 31.0625 C-3.445 31.330625 -2.7025 31.59875 -1.9375 31.875 C0.67886554 33.00479421 2.61437111 34.27143202 4.8125 36.0625 C-1.77849231 36.61174936 -6.71912332 35.95827162 -12.1875 32.0625 C-16.66433721 27.80783833 -18.33723911 23.94601567 -18.5 17.8125 C-18.43422868 12.28040095 -17.57919608 9.43600284 -14.1875 5.0625 C-9.44162746 1.38202742 -5.9562574 -0.07735399 0 0 Z " fill="#AEEC61" transform="translate(370.1875,212.9375)"/>
<path d="M0 0 C0.66 0.66 1.32 1.32 2 2 C4.81402683 2.37239227 4.81402683 2.37239227 8.1015625 2.4140625 C9.31328125 2.45273438 10.525 2.49140625 11.7734375 2.53125 C13.04445313 2.5621875 14.31546875 2.593125 15.625 2.625 C16.90375 2.66367188 18.1825 2.70234375 19.5 2.7421875 C22.66652017 2.83671049 25.8330304 2.92226357 29 3 C29.33 2.01 29.66 1.02 30 0 C30.33 0 30.66 0 31 0 C31 7.59 31 15.18 31 23 C28.03 23.33 25.06 23.66 22 24 C23.96382007 22.49440461 25.78263366 21.10868317 28 20 C28.69227032 17.19019327 28.69227032 17.19019327 29.125 13.9375 C29.41375 11.978125 29.7025 10.01875 30 8 C25.38 8 20.76 8 16 8 C16.144375 9.60875 16.28875 11.2175 16.4375 12.875 C16.51871094 13.77992187 16.59992188 14.68484375 16.68359375 15.6171875 C16.86989285 18.01110861 16.86989285 18.01110861 18 20 C16.02 20 14.04 20 12 20 C12.33 19.34 12.66 18.68 13 18 C13.22622081 16.29636178 13.40888473 14.58671299 13.5625 12.875 C13.64628906 11.96492188 13.73007812 11.05484375 13.81640625 10.1171875 C13.87699219 9.41851562 13.93757813 8.71984375 14 8 C12.04098546 8.11382653 10.0827662 8.24141125 8.125 8.375 C6.48917969 8.47941406 6.48917969 8.47941406 4.8203125 8.5859375 C1.86953526 8.73253491 1.86953526 8.73253491 0 11 C0 7.37 0 3.74 0 0 Z " fill="#0D25C3" transform="translate(366,103)"/>
<path d="M0 0 C4.0226217 1.56435288 5.59149109 2.38723663 8 6 C8.67226891 12.94677871 8.67226891 12.94677871 6.125 16.9375 C2.28363911 20.66587968 -1.11672604 20.38076319 -6.2890625 20.3671875 C-9.166738 19.97741589 -10.19161841 19.54202915 -12.1875 17.5 C-12.785625 16.675 -13.38375 15.85 -14 15 C-13.67 14.01 -13.34 13.02 -13 12 C-11.515 12.99 -11.515 12.99 -10 14 C-6.63562562 14.28077287 -6.63562562 14.28077287 -2.9375 14.1875 C-1.68839844 14.18105469 -0.43929688 14.17460937 0.84765625 14.16796875 C3.90155979 14.21546558 3.90155979 14.21546558 6 13 C6 11.35 6 9.7 6 8 C1.42852006 5.64052648 -2.96715827 5.39076126 -8 6 C-11.45346148 7.34746524 -11.45346148 7.34746524 -14 9 C-13.72253508 5.67042093 -13.18903896 4.21195277 -10.9375 1.6875 C-7.21964369 -0.4482898 -4.14514716 -0.68139405 0 0 Z " fill="#162EC5" transform="translate(378,144)"/>
<path d="M0 0 C2 1.0625 2 1.0625 3 2.0625 C3.25 4.5 3.25 4.5 3 7.0625 C-0.6559394 9.49979293 -2.52700788 9.33088474 -6.875 9.3125 C-8.08929688 9.31765625 -9.30359375 9.3228125 -10.5546875 9.328125 C-13.82444211 9.07603508 -16.06519555 8.46852799 -19 7.0625 C-19 5.4125 -19 3.7625 -19 2.0625 C-12.74534677 -1.17266546 -6.8141796 -2.12943113 0 0 Z " fill="#F1ECEC" transform="translate(382,149.9375)"/>
<path d="M0 0 C0.66 0.66 1.32 1.32 2 2 C4.81402683 2.37239227 4.81402683 2.37239227 8.1015625 2.4140625 C9.31328125 2.45273438 10.525 2.49140625 11.7734375 2.53125 C13.04445313 2.5621875 14.31546875 2.593125 15.625 2.625 C16.90375 2.66367188 18.1825 2.70234375 19.5 2.7421875 C22.66652017 2.83671049 25.8330304 2.92226357 29 3 C29.33 2.01 29.66 1.02 30 0 C32 2 32 2 32.125 4.625 C32.08375 5.40875 32.0425 6.1925 32 7 C30.65252686 7.029729 30.65252686 7.029729 29.27783203 7.06005859 C25.94909922 7.13809261 22.62082744 7.22478114 19.29248047 7.31738281 C17.8511626 7.35569674 16.40974832 7.39054543 14.96826172 7.421875 C12.89776114 7.46747446 10.82792567 7.52547444 8.7578125 7.5859375 C7.5114502 7.6173584 6.26508789 7.6487793 4.98095703 7.68115234 C1.88458224 7.69682309 1.88458224 7.69682309 0 10 C0 6.7 0 3.4 0 0 Z " fill="#0822C3" transform="translate(364,130)"/>
<path d="M0 0 C0.33 0 0.66 0 1 0 C1 2.97 1 5.94 1 9 C-1.0728125 9.6496875 -1.0728125 9.6496875 -3.1875 10.3125 C-6.77361308 11.50032925 -9.85346728 12.86847784 -13 15 C-12.34 15.66 -11.68 16.32 -11 17 C-14.55780196 16.39009109 -17.6828589 15.4216319 -21 14 C-21 13.34 -21 12.68 -21 12 C-19.37750059 11.16180842 -17.75191503 10.3295884 -16.125 9.5 C-15.22007812 9.0359375 -14.31515625 8.571875 -13.3828125 8.09375 C-11 7 -11 7 -9 7 C-9 6.34 -9 5.68 -9 5 C-8.43410156 4.80664062 -7.86820312 4.61328125 -7.28515625 4.4140625 C-6.55167969 4.15367187 -5.81820313 3.89328125 -5.0625 3.625 C-4.33160156 3.36976563 -3.60070312 3.11453125 -2.84765625 2.8515625 C-0.81317884 2.14728587 -0.81317884 2.14728587 0 0 Z " fill="#182FC5" transform="translate(385,180)"/>
<path d="M0 0 C0.33 0 0.66 0 1 0 C1 2.97 1 5.94 1 9 C-0.2375 9.12375 -0.2375 9.12375 -1.5 9.25 C-5.76753921 10.16447269 -9.19236894 11.92223178 -13 14 C-12.01 15.485 -12.01 15.485 -11 17 C-14.95820859 16.43454163 -17.6659053 15.19097652 -21 13 C-18.8631429 10.67638676 -16.82523175 9.21456585 -14.0234375 7.7734375 C-12.89421875 7.185625 -12.89421875 7.185625 -11.7421875 6.5859375 C-10.96101563 6.18632812 -10.17984375 5.78671875 -9.375 5.375 C-7.81952075 4.57184405 -6.26479168 3.76723297 -4.7109375 2.9609375 C-4.02306152 2.60821777 -3.33518555 2.25549805 -2.62646484 1.89208984 C-1.01196156 1.10527107 -1.01196156 1.10527107 0 0 Z " fill="#172FC5" transform="translate(385,167)"/>
<path d="M0 0 C0.33 0 0.66 0 1 0 C1 7.59 1 15.18 1 23 C-1.97 23.33 -4.94 23.66 -8 24 C-6.03617993 22.49440461 -4.21736634 21.10868317 -2 20 C-0.52651301 16.27023604 -0.92499517 12.25400363 -1 8.3125 C-1.04572975 5.86824482 -1.04720348 3.44573046 -1 1 C-0.67 0.67 -0.34 0.34 0 0 Z " fill="#707CD5" transform="translate(396,103)"/>
<path d="M0 0 C0.66 0 1.32 0 2 0 C2.06058594 0.69867188 2.12117188 1.39734375 2.18359375 2.1171875 C2.26738281 3.02726562 2.35117187 3.93734375 2.4375 4.875 C2.51871094 5.77992187 2.59992188 6.68484375 2.68359375 7.6171875 C2.86989285 10.01110861 2.86989285 10.01110861 4 12 C2.02 12 0.04 12 -2 12 C-1.67 11.34 -1.34 10.68 -1 10 C-0.77377919 8.29636178 -0.59111527 6.58671299 -0.4375 4.875 C-0.35371094 3.96492188 -0.26992188 3.05484375 -0.18359375 2.1171875 C-0.12300781 1.41851562 -0.06242187 0.71984375 0 0 Z " fill="#5564D0" transform="translate(380,111)"/>
<path d="M0 0 C0.33 0 0.66 0 1 0 C1 2.64 1 5.28 1 8 C-2.465 6.02 -2.465 6.02 -6 4 C-6 3.67 -6 3.34 -6 3 C-5.195625 2.87625 -4.39125 2.7525 -3.5625 2.625 C-2.716875 2.41875 -1.87125 2.2125 -1 2 C-0.67 1.34 -0.34 0.68 0 0 Z " fill="#2D42C9" transform="translate(385,196)"/>
<path d="M0 0 C0.33 0 0.66 0 1 0 C1 1.65 1 3.3 1 5 C-1.64 5.33 -4.28 5.66 -7 6 C-6.401875 5.566875 -5.80375 5.13375 -5.1875 4.6875 C-3.01066428 3.08264816 -3.01066428 3.08264816 -1.3125 1.3125 C-0.879375 0.879375 -0.44625 0.44625 0 0 Z " fill="#253AC8" transform="translate(395,121)"/>
</svg>
